<?xml version="1.0" encoding="utf-8"?>
<!-- Generator: Adobe Illustrator 16.0.4, SVG Export Plug-In . SVG Version: 6.00 Build 0)  -->
<!DOCTYPE svg PUBLIC "-//W3C//DTD SVG 1.1//EN" "http://www.w3.org/Graphics/SVG/1.1/DTD/svg11.dtd">
<svg version="1.1" xmlns="http://www.w3.org/2000/svg" xmlns:xlink="http://www.w3.org/1999/xlink" x="0px" y="0px"
	 width="205.521px" height="205.522px" viewBox="0 0 205.521 205.522" enable-background="new 0 0 205.521 205.522"
	 xml:space="preserve">
<g id="Layer_3">
</g>
<g id="Layer_1">
</g>
<g id="Layer_4">
</g>
<g id="Layer_5">
</g>
<g id="Layer_6">
	<g>
		<defs>
			<circle id="SVGID_9_" cx="102.761" cy="102.761" r="102.761"/>
		</defs>
		<use xlink:href="#SVGID_9_"  overflow="visible" fill="#353535"/>
		<clipPath id="SVGID_2_">
			<use xlink:href="#SVGID_9_"  overflow="visible"/>
		</clipPath>
		<g clip-path="url(#SVGID_2_)">
			<path fill="#F1F0F0" d="M173.61,102.571c0,0-31.721,44.69-70.85,44.69c-39.13,0-70.851-44.69-70.851-44.69
				s31.721-44.31,70.851-44.31C141.89,58.261,173.61,102.571,173.61,102.571z"/>
			<circle fill="none" stroke="#3081C3" stroke-width="4" stroke-miterlimit="10" cx="102.76" cy="102.761" r="31"/>
			<circle fill="#3081C4" cx="102.761" cy="102.761" r="23.333"/>
			<circle fill="#F1F0F0" cx="116.452" cy="95.511" r="9.083"/>
		</g>
		<g clip-path="url(#SVGID_2_)">
			<g>
				<circle fill="#F16145" cx="71.76" cy="163.628" r="17.308"/>
				<polygon fill="#F16145" points="57.308,154.103 71.759,128.756 86.212,154.103 				"/>
			</g>
			<g>
				<path fill="#F1F0F0" d="M82.03,172.196c-0.719,0.977-1.916,1.194-2.482,0.592l0,0c-0.568-0.603-0.474-1.627,0.066-2.369
					c2.97-4.025,2.97-9.553,0-13.578c-0.541-0.742-0.636-1.767-0.066-2.369l0,0c0.567-0.603,1.764-0.385,2.482,0.592
					C85.777,160.141,85.777,167.118,82.03,172.196z"/>
			</g>
		</g>
	</g>
</g>
</svg>
