<?xml version="1.0" encoding="utf-8"?>
<!-- Generator: Adobe Illustrator 16.0.4, SVG Export Plug-In . SVG Version: 6.00 Build 0)  -->
<!DOCTYPE svg PUBLIC "-//W3C//DTD SVG 1.1//EN" "http://www.w3.org/Graphics/SVG/1.1/DTD/svg11.dtd">
<svg version="1.1" xmlns="http://www.w3.org/2000/svg" xmlns:xlink="http://www.w3.org/1999/xlink" x="0px" y="0px"
	 width="205.522px" height="205.522px" viewBox="0 0 205.522 205.522" enable-background="new 0 0 205.522 205.522"
	 xml:space="preserve">
<g id="Layer_3">
	<g>
		<defs>
			<circle id="SVGID_1_" cx="102.761" cy="102.761" r="102.761"/>
		</defs>
		<use xlink:href="#SVGID_1_"  overflow="visible" fill="#353535"/>
		<clipPath id="SVGID_2_">
			<use xlink:href="#SVGID_1_"  overflow="visible"/>
		</clipPath>
		<g clip-path="url(#SVGID_2_)">
			<path fill="#FDD09F" d="M173.54,147.566c0,2.15-0.82,3.894-1.832,3.894h-42.523c-1.012,0-1.833-1.744-1.833-3.894v-26.287
				c0-2.15,0.82-3.894,1.833-3.894h42.523c1.011,0,1.832,1.744,1.832,3.894V147.566z"/>
			<path fill="#FDD09F" d="M136.704,120.845c0,2.209-1.791,4-4,4h-1.333c-2.209,0-4-1.791-4-4V84.678c0-2.209,1.791-4,4-4h1.333
				c2.209,0,4,1.791,4,4V120.845z"/>
			<path fill="#FDD09F" d="M139.457,140.253c1.562,1.562,1.562,4.095,0,5.657l-0.942,0.943c-1.562,1.562-4.095,1.562-5.657,0
				l-25.574-25.574c-1.562-1.562-1.562-4.095,0-5.657l0.942-0.943c1.562-1.562,4.095-1.562,5.657,0L139.457,140.253z"/>
			<path fill="#FDD09F" d="M149.04,116.843c0,2.209-1.791,4-4,4h-1.333c-2.209,0-4-1.791-4-4V80.676c0-2.209,1.791-4,4-4h1.333
				c2.209,0,4,1.791,4,4V116.843z"/>
			<path fill="#FDD09F" d="M161.207,120.845c0,2.209-1.791,4-4,4h-1.333c-2.209,0-4-1.791-4-4V84.678c0-2.209,1.791-4,4-4h1.333
				c2.209,0,4,1.791,4,4V120.845z"/>
			<path fill="#FDD09F" d="M173.543,130.854c0,2.209-1.791,4-4,4h-1.333c-2.209,0-4-1.791-4-4V94.688c0-2.209,1.791-4,4-4h1.333
				c2.209,0,4,1.791,4,4V130.854z"/>
			<rect x="127.373" y="151.349" fill="#47BB8C" width="46.167" height="66.885"/>
		</g>
		<g clip-path="url(#SVGID_2_)">
			<path fill="#FDD09F" d="M27.689,58.176c0-2.15,0.82-3.894,1.832-3.894h42.523c1.012,0,1.833,1.744,1.833,3.894v26.287
				c0,2.15-0.82,3.894-1.833,3.894H29.521c-1.011,0-1.832-1.744-1.832-3.894V58.176z"/>
			<path fill="#FDD09F" d="M64.525,84.897c0-2.209,1.791-4,4-4h1.333c2.209,0,4,1.791,4,4v36.167c0,2.209-1.791,4-4,4h-1.333
				c-2.209,0-4-1.791-4-4V84.897z"/>
			<path fill="#FDD09F" d="M61.772,65.489c-1.562-1.562-1.562-4.095,0-5.657l0.942-0.943c1.562-1.562,4.095-1.562,5.657,0
				l25.574,25.574c1.562,1.562,1.562,4.095,0,5.657l-0.942,0.943c-1.562,1.562-4.095,1.562-5.657,0L61.772,65.489z"/>
			<path fill="#FDD09F" d="M52.189,88.899c0-2.209,1.791-4,4-4h1.333c2.209,0,4,1.791,4,4v36.167c0,2.209-1.791,4-4,4h-1.333
				c-2.209,0-4-1.791-4-4V88.899z"/>
			<path fill="#FDD09F" d="M40.022,84.897c0-2.209,1.791-4,4-4h1.333c2.209,0,4,1.791,4,4v36.167c0,2.209-1.791,4-4,4h-1.333
				c-2.209,0-4-1.791-4-4V84.897z"/>
			<path fill="#FDD09F" d="M27.686,74.888c0-2.209,1.791-4,4-4h1.333c2.209,0,4,1.791,4,4v36.167c0,2.209-1.791,4-4,4h-1.333
				c-2.209,0-4-1.791-4-4V74.888z"/>
			<rect x="27.689" y="-12.492" fill="#3081C4" width="46.167" height="66.885"/>
		</g>
		<g clip-path="url(#SVGID_2_)">
			<defs>
				<path id="SVGID_3_" d="M160.045,143.745c-0.665,0.863-1.752,1.141-2.429,0.621l-31.325-24.122
					c-0.676-0.523-0.686-1.646-0.02-2.509l14.123-18.34c0.665-0.864,1.752-1.141,2.429-0.619l31.326,24.122
					c0.676,0.522,0.686,1.644,0.021,2.508L160.045,143.745z"/>
			</defs>
			<use xlink:href="#SVGID_3_"  overflow="visible" fill="#FBB840"/>
			<clipPath id="SVGID_4_">
				<use xlink:href="#SVGID_3_"  overflow="visible"/>
			</clipPath>
			
				<rect x="129.199" y="114.538" transform="matrix(0.7923 0.6101 -0.6101 0.7923 103.6452 -69.8712)" clip-path="url(#SVGID_4_)" fill="#3C424F" width="50.503" height="5.525"/>
			
				<rect x="130.943" y="118.604" transform="matrix(0.7923 0.6101 -0.6101 0.7923 103.9521 -63.309)" clip-path="url(#SVGID_4_)" fill="#F1F0F0" width="28.041" height="4.852"/>
			
				<rect x="156.625" y="130.317" transform="matrix(0.7925 0.6099 -0.6099 0.7925 114.2078 -70.1458)" clip-path="url(#SVGID_4_)" fill="#F1F0F0" width="7.103" height="4.852"/>
		</g>
		<g clip-path="url(#SVGID_2_)">
			<path fill="#F16145" d="M65.811,120.246c2.112,3.101,0.867,7.626-2.781,10.112l-2.515,1.714
				c-3.648,2.484-8.316,1.986-10.427-1.113L28.025,98.577c-2.112-3.1-0.867-7.626,2.78-10.111l2.515-1.714
				c3.648-2.486,8.317-1.987,10.428,1.112L65.811,120.246z"/>
			<path fill="#F16145" d="M94.668,85.313c3.443,1.49,7.653-0.587,9.405-4.639l1.209-2.793c1.751-4.051,0.381-8.542-3.061-10.03
				L66.258,52.298c-3.443-1.489-7.653,0.587-9.404,4.638l-1.21,2.793c-1.751,4.051-0.381,8.542,3.062,10.032L94.668,85.313z"/>
			
				<rect x="29.804" y="68.504" transform="matrix(0.6369 -0.771 0.771 0.6369 -42.441 69.0698)" fill="#F16145" width="44.6" height="22.173"/>
			<g>
				<circle fill="#F1F0F0" cx="61.852" cy="62.253" r="2.675"/>
				<circle fill="#F1F0F0" cx="69.118" cy="68.255" r="2.676"/>
				<circle fill="#F1F0F0" cx="68.807" cy="61.059" r="2.675"/>
				<circle fill="#F1F0F0" cx="61.993" cy="69.308" r="2.675"/>
			</g>
			<g>
				
					<rect x="38.397" y="90.403" transform="matrix(0.6371 -0.7708 0.7708 0.6371 -59.6591 65.9577)" fill="#F1F0F0" width="3.638" height="11.865"/>
				
					<rect x="38.24" y="90.273" transform="matrix(0.771 0.6368 -0.6368 0.771 70.4395 -3.4806)" fill="#F1F0F0" width="3.639" height="11.865"/>
			</g>
		</g>
	</g>
</g>
<g id="Layer_1">
</g>
<g id="Layer_4">
</g>
<g id="Layer_5">
</g>
<g id="Layer_6">
</g>
</svg>
