<?xml version="1.0" encoding="utf-8"?>
<!-- Generator: Adobe Illustrator 16.0.4, SVG Export Plug-In . SVG Version: 6.00 Build 0)  -->
<!DOCTYPE svg PUBLIC "-//W3C//DTD SVG 1.1//EN" "http://www.w3.org/Graphics/SVG/1.1/DTD/svg11.dtd">
<svg version="1.1" xmlns="http://www.w3.org/2000/svg" xmlns:xlink="http://www.w3.org/1999/xlink" x="0px" y="0px"
	 width="205.521px" height="205.522px" viewBox="0 0 205.521 205.522" enable-background="new 0 0 205.521 205.522"
	 xml:space="preserve">
<g id="Layer_3">
</g>
<g id="Layer_1">
	<g>
		<defs>
			<circle id="SVGID_5_" cx="102.761" cy="102.761" r="102.761"/>
		</defs>
		<use xlink:href="#SVGID_5_"  overflow="visible" fill="#353535"/>
		<clipPath id="SVGID_2_">
			<use xlink:href="#SVGID_5_"  overflow="visible"/>
		</clipPath>
		<g clip-path="url(#SVGID_2_)">
			<path fill="#47BB8C" d="M171.706,120.173c0,3.605-2.922,6.528-6.527,6.528H41.15c-3.604,0-6.527-2.922-6.527-6.528V35.312
				c0-3.605,2.923-6.528,6.527-6.528h124.028c3.605,0,6.527,2.922,6.527,6.528V120.173z"/>
			<path fill="#25A873" d="M171.706,171.742c0,1.208-0.835,2.187-1.865,2.187H36.488c-1.03,0-1.865-0.979-1.865-2.187v-52.49
				c0-1.208,0.835-2.187,1.865-2.187h133.353c1.03,0,1.865,0.979,1.865,2.187V171.742z"/>
			<path fill="#209966" d="M159.272,141.842c0,0.896-0.793,1.624-1.771,1.624H48.83c-0.979,0-1.772-0.727-1.772-1.624v-19.757
				c0-0.896,0.793-1.624,1.772-1.624h108.671c0.979,0,1.771,0.728,1.771,1.624V141.842z"/>
			<path fill="#209966" d="M118.188,168.063c0,0.836-0.212,1.514-0.471,1.514h-28.9c-0.259,0-0.471-0.678-0.471-1.514v-18.42
				c0-0.836,0.212-1.514,0.471-1.514h28.9c0.259,0,0.471,0.678,0.471,1.514V168.063z"/>
			<path fill="#3C424F" d="M164.764,108.881c0,1.03-0.836,1.865-1.865,1.865H43.533c-1.03,0-1.865-0.835-1.865-1.865v-73.67
				c0-1.03,0.835-1.865,1.865-1.865h119.365c1.029,0,1.865,0.835,1.865,1.865V108.881z"/>
		</g>
		<g clip-path="url(#SVGID_2_)">
			<defs>
				<rect id="SVGID_7_" x="61.484" y="52.229" width="83.462" height="39.633"/>
			</defs>
			<use xlink:href="#SVGID_7_"  overflow="visible" fill="#FBB840"/>
			<clipPath id="SVGID_4_">
				<use xlink:href="#SVGID_7_"  overflow="visible"/>
			</clipPath>
			
				<rect x="81.72" y="40.323" transform="matrix(0.5291 -0.8485 0.8485 0.5291 -16.7303 101.1394)" clip-path="url(#SVGID_4_)" fill="#E8A63C" width="2.093" height="50.643"/>
			<polygon clip-path="url(#SVGID_4_)" fill="#E8A63C" points="102.596,78.161 103.69,79.957 145.69,53.151 144.596,51.355 			"/>
		</g>
		<circle clip-path="url(#SVGID_2_)" fill="#F16145" cx="144.259" cy="57.284" r="12.24"/>
		<g clip-path="url(#SVGID_2_)">
			<rect x="142.86" y="49.921" fill="#F1F0F0" width="2.798" height="10.375"/>
			<circle fill="#F1F0F0" cx="144.259" cy="63.248" r="1.399"/>
		</g>
	</g>
</g>
<g id="Layer_4">
</g>
<g id="Layer_5">
</g>
<g id="Layer_6">
</g>
</svg>
