<?xml version="1.0" encoding="utf-8"?>
<!-- Generator: Adobe Illustrator 16.0.4, SVG Export Plug-In . SVG Version: 6.00 Build 0)  -->
<!DOCTYPE svg PUBLIC "-//W3C//DTD SVG 1.1//EN" "http://www.w3.org/Graphics/SVG/1.1/DTD/svg11.dtd">
<svg version="1.1" xmlns="http://www.w3.org/2000/svg" xmlns:xlink="http://www.w3.org/1999/xlink" x="0px" y="0px"
	 width="205.522px" height="205.522px" viewBox="0 0 205.522 205.522" enable-background="new 0 0 205.522 205.522"
	 xml:space="preserve">
<g id="Layer_3">
</g>
<g id="Layer_1">
</g>
<g id="Layer_4">
	<circle fill="#353535" cx="102.761" cy="102.761" r="102.761"/>
	<path fill="#FBB840" d="M166.002,168.428c0,1.105-0.896,2-2,2H41.669c-1.104,0-2-0.895-2-2V37.095c0-1.104,0.896-2,2-2h122.333
		c1.104,0,2,0.896,2,2V168.428z"/>
	<rect x="51.836" y="44.55" fill="#F1F0F0" width="102" height="10"/>
	<path fill="#F16145" d="M155.576,52.55c0,1.104-0.896,2-2,2h-16c-1.104,0-2-0.896-2-2v-6c0-1.104,0.896-2,2-2h16
		c1.104,0,2,0.896,2,2V52.55z"/>
	<g>
		<path fill="#F1F0F0" d="M144.629,46.396c-1.281,0-2.32,1.039-2.32,2.32c0,1.282,1.039,2.321,2.32,2.321
			c1.282,0,2.319-1.039,2.319-2.321C146.948,47.435,145.911,46.396,144.629,46.396z M144.629,50.354
			c-0.905,0-1.638-0.733-1.638-1.639c0-0.905,0.732-1.638,1.638-1.638c0.904,0,1.638,0.733,1.638,1.638
			C146.267,49.621,145.533,50.354,144.629,50.354z"/>
		<path fill="#F1F0F0" d="M150.378,52.086c0.093,0.062,0.082,0.245-0.027,0.411l0,0c-0.107,0.165-0.272,0.249-0.368,0.188
			l-3.641-2.397c-0.094-0.062-0.081-0.246,0.026-0.411l0,0c0.109-0.165,0.275-0.25,0.368-0.187L150.378,52.086z"/>
	</g>
	<g>
		<g>
			<rect x="51.836" y="66.557" fill="#3C424F" width="21.907" height="19.5"/>
			<g>
				<rect x="77.745" y="66.557" fill="#3C424F" width="58.833" height="4"/>
				<g>
					<rect x="77.745" y="74.307" fill="#3C424F" width="31.665" height="2.583"/>
					<rect x="111.743" y="74.307" fill="#3C424F" width="24.836" height="2.583"/>
					<rect x="77.745" y="79.472" fill="#3C424F" width="16.498" height="2.583"/>
					<rect x="95.863" y="79.472" fill="#3C424F" width="11.424" height="2.583"/>
					<rect x="109.41" y="79.472" fill="#3C424F" width="27.169" height="2.583"/>
				</g>
			</g>
		</g>
		<g>
			<g>
				<g>
					<rect x="77.745" y="103.893" fill="#3C424F" width="31.665" height="2.583"/>
					<rect x="111.743" y="103.893" fill="#3C424F" width="24.836" height="2.583"/>
					<rect x="77.745" y="109.058" fill="#3C424F" width="16.498" height="2.583"/>
					<rect x="95.863" y="109.058" fill="#3C424F" width="11.424" height="2.583"/>
					<rect x="109.41" y="109.058" fill="#3C424F" width="27.169" height="2.583"/>
				</g>
				<rect x="77.745" y="96.065" fill="#3C424F" width="58.833" height="4"/>
			</g>
			<rect x="51.836" y="96.065" fill="#3C424F" width="21.907" height="19.5"/>
		</g>
		<g>
			<g>
				<g>
					<rect x="77.745" y="133.408" fill="#3C424F" width="31.665" height="2.582"/>
					<rect x="111.743" y="133.408" fill="#3C424F" width="24.836" height="2.582"/>
					<rect x="77.745" y="138.573" fill="#3C424F" width="16.498" height="2.582"/>
					<rect x="95.863" y="138.573" fill="#3C424F" width="11.424" height="2.582"/>
					<rect x="109.41" y="138.573" fill="#3C424F" width="27.169" height="2.582"/>
				</g>
				<rect x="77.745" y="125.573" fill="#3C424F" width="58.833" height="3.999"/>
			</g>
			<rect x="51.836" y="125.572" fill="#3C424F" width="21.907" height="19.501"/>
		</g>
	</g>
</g>
<g id="Layer_5">
</g>
<g id="Layer_6">
</g>
</svg>
